ffmpeg version 5.0.1 Copyright (c) 2000-2022 the FFmpeg developers
  built with Apple clang version 13.1.6 (clang-1316.0.21.2)
  configuration: --prefix=/opt/homebrew/Cellar/ffmpeg/5.0.1 --enable-shared --enable-pthreads --enable-version3 --cc=clang --host-cflags= --host-ldflags= --enable-ffplay --enable-gnutls --enable-gpl --enable-libaom --enable-libbluray --enable-libdav1d --enable-libmp3lame --enable-libopus --enable-librav1e --enable-librist --enable-librubberband --enable-libsnappy --enable-libsrt --enable-libtesseract --enable-libtheora --enable-libvidstab --enable-libvmaf --enable-libvorbis --enable-libvpx --enable-libwebp --enable-libx264 --enable-libx265 --enable-libxml2 --enable-libxvid --enable-lzma --enable-libfontconfig --enable-libfreetype --enable-frei0r --enable-libass --enable-libopencore-amrnb --enable-libopencore-amrwb --enable-libopenjpeg --enable-libspeex --enable-libsoxr --enable-libzmq --enable-libzimg --disable-libjack --disable-indev=jack --enable-videotoolbox --enable-neon
  libavutil      57. 17.100 / 57. 17.100
  libavcodec     59. 18.100 / 59. 18.100
  libavformat    59. 16.100 / 59. 16.100
  libavdevice    59.  4.100 / 59.  4.100
  libavfilter     8. 24.100 /  8. 24.100
  libswscale      6.  4.100 /  6.  4.100
  libswresample   4.  3.100 /  4.  3.100
  libpostproc    56.  3.100 / 56.  3.100
Input #0, gif, from './figures/stellar-i_3.0e+01-lambobs_9.0e+01-betaobs_9.0e+01.gif':
  Duration: 00:00:04.00, start: 0.000000, bitrate: 368 kb/s
  Stream #0:0: Video: gif, bgra, 600x600, 5 fps, 5 tbr, 100 tbn
Stream mapping:
  Stream #0:0 -> #0:0 (gif (native) -> h264 (libx264))
Press [q] to stop, [?] for help
[libx264 @ 0x12e608a10] using cpu capabilities: ARMv8 NEON
[libx264 @ 0x12e608a10] profile High, level 2.2, 4:2:0, 8-bit
[libx264 @ 0x12e608a10] 264 - core 163 r3060 5db6aa6 - H.264/MPEG-4 AVC codec - Copyleft 2003-2021 - http://www.videolan.org/x264.html - options: cabac=1 ref=3 deblock=1:0:0 analyse=0x3:0x113 me=hex subme=7 psy=1 psy_rd=1.00:0.00 mixed_ref=1 me_range=16 chroma_me=1 trellis=1 8x8dct=1 cqm=0 deadzone=21,11 fast_pskip=1 chroma_qp_offset=-2 threads=12 lookahead_threads=2 sliced_threads=0 nr=0 decimate=1 interlaced=0 bluray_compat=0 constrained_intra=0 bframes=3 b_pyramid=2 b_adapt=1 b_bias=0 direct=1 weightb=1 open_gop=0 weightp=2 keyint=250 keyint_min=5 scenecut=40 intra_refresh=0 rc_lookahead=40 rc=crf mbtree=1 crf=23.0 qcomp=0.60 qpmin=0 qpmax=69 qpstep=4 ip_ratio=1.40 aq=1:1.00
Output #0, mp4, to './figures/stellar-i_3.0e+01-lambobs_9.0e+01-betaobs_9.0e+01.mp4':
  Metadata:
    encoder         : Lavf59.16.100
  Stream #0:0: Video: h264 (avc1 / 0x31637661), yuv420p(tv, progressive), 600x600, q=2-31, 5 fps, 10240 tbn
    Metadata:
      encoder         : Lavc59.18.100 libx264
    Side data:
      cpb: bitrate max/min/avg: 0/0/0 buffer size: 0 vbv_delay: N/A
frame=    1 fps=0.0 q=0.0 size=       0kB time=00:00:00.00 bitrate=N/A speed=   0x    [mp4 @ 0x12e606af0] Starting second pass: moving the moov atom to the beginning of the file
frame=   20 fps=0.0 q=-1.0 Lsize=     285kB time=00:00:03.40 bitrate= 686.9kbits/s speed=31.4x    
video:284kB audio:0kB subtitle:0kB other streams:0kB global headers:0kB muxing overhead: 0.375798%
[libx264 @ 0x12e608a10] frame I:1     Avg QP: 5.90  size: 16101
[libx264 @ 0x12e608a10] frame P:5     Avg QP:19.98  size: 17667
[libx264 @ 0x12e608a10] frame B:14    Avg QP:20.86  size: 13266
[libx264 @ 0x12e608a10] consecutive B-frames:  5.0%  0.0% 15.0% 80.0%
[libx264 @ 0x12e608a10] mb I  I16..4: 86.5%  0.1% 13.4%
[libx264 @ 0x12e608a10] mb P  I16..4:  0.9%  5.3% 11.8%  P16..4:  3.5%  1.9%  4.7%  0.0%  0.0%    skip:71.8%
[libx264 @ 0x12e608a10] mb B  I16..4:  0.2%  0.3%  3.1%  B16..8:  7.0%  3.1% 11.1%  direct: 0.9%  skip:74.2%  L0:50.9% L1:44.7% BI: 4.3%
[libx264 @ 0x12e608a10] 8x8 transform intra:13.0% inter:3.1%
[libx264 @ 0x12e608a10] coded y,uvDC,uvAC intra: 40.1% 48.6% 48.5% inter: 7.7% 14.2% 14.2%
[libx264 @ 0x12e608a10] i16 v,h,dc,p: 90%  6%  3%  0%
[libx264 @ 0x12e608a10] i8 v,h,dc,ddl,ddr,vr,hd,vl,hu: 22% 14% 59%  1%  1%  1%  1%  1%  0%
[libx264 @ 0x12e608a10] i4 v,h,dc,ddl,ddr,vr,hd,vl,hu: 25% 14% 30%  6%  6%  6%  6%  4%  4%
[libx264 @ 0x12e608a10] i8c dc,h,v,p: 80%  7%  8%  5%
[libx264 @ 0x12e608a10] Weighted P-Frames: Y:0.0% UV:0.0%
[libx264 @ 0x12e608a10] ref P L0: 59.2%  3.3% 24.2% 13.3%
[libx264 @ 0x12e608a10] ref B L0: 81.7% 14.5%  3.8%
[libx264 @ 0x12e608a10] ref B L1: 93.5%  6.5%
[libx264 @ 0x12e608a10] kb/s:580.32
